PathFileType	4	(X/Y/Z)	./resultDataOpenSim/trcMotMarkerGrf/sub09/qtm-05-01.trc
DataRate	CameraRate	NumFrames	NumMarkers	Units	OrigDataRate	OrigDataStartFrame	OrigNumFrames
250.000000	250.000000	9	24	m	250.000000	261	521
Frame#	Time	L.Toe.Tip			R.Toe.Tip			L.Ankle.Lat			R.Ankle.Lat			L.Ankle.Med			R.Ankle.Med			L.Heel			R.Heel			L.Knee.Lat			R.Knee.Lat			L.Knee.Med			R.Knee.Med			L.Thigh.Upper			R.Thigh.Upper			L.ASIS			R.ASIS			V.Sacral			L.Acromium			R.Acromium			C7			L.Elbow			R.Elbow			L.Wrist.Lat			R.Wrist.Lat
		X1	Y1	Z1	X2	Y2	Z2	X3	Y3	Z3	X4	Y4	Z4	X5	Y5	Z5	X6	Y6	Z6	X7	Y7	Z7	X8	Y8	Z8	X9	Y9	Z9	X10	Y10	Z10	X11	Y11	Z11	X12	Y12	Z12	X13	Y13	Z13	X14	Y14	Z14	X15	Y15	Z15	X16	Y16	Z16	X17	Y17	Z17	X18	Y18	Z18	X19	Y19	Z19	X20	Y20	Z20	X21	Y21	Z21	X22	Y22	Z22	X23	Y23	Z23	X24	Y24	Z24

261	1.04	0.12423007	-0.059361698	0.058061607	0.48463265	0.11251967	0.16257834	-0.015509756	0.0029519226	0.006459889	0.33800455	0.12379829	0.17804532	0.0063434145	0.020150592	0.10141998	0.36144769	0.15981839	0.087331425	-0.090894457	-0.016360248	0.049486007	0.27606748	0.098931452	0.12036454	0.096471728	0.40204766	-0.05308012	0.44951998	0.55549369	0.23396495	0.096732388	0.40508277	0.073034738	0.45551394	0.54572353	0.10680226	0.14955742	0.82315211	-0.11012164	0.16084553	0.84097677	0.26223028	0.24334677	0.89988445	-0.0491926	0.23643246	0.91831324	0.18763909	0.079594844	0.97285391	0.065913181	0.28092291	1.3582367	-0.090197896	0.22950836	1.3735296	0.23475874	0.18796781	1.4171291	0.062020793	0.16238208	1.0008433	-0.16884721	0.060959078	1.0503747	0.29758666	0.40324505	0.86986431	-0.15590451	0.15196003	0.80450505	0.36578365
262	1.044	0.12426673	-0.05936114	0.058060602	0.50429699	0.11305098	0.1630548	-0.015608491	0.003494374	0.0072046133	0.35714496	0.12098103	0.17765586	0.0068174982	0.020651547	0.10176226	0.38038155	0.15737197	0.086872585	-0.090671932	-0.015600589	0.05005798	0.29655087	0.094418283	0.11912764	0.097084336	0.40248704	-0.053074602	0.45637882	0.55652302	0.23391231	0.098061248	0.40539256	0.073060509	0.46233157	0.5464174	0.10690403	0.15403219	0.82301652	-0.10988058	0.16637085	0.84060264	0.26263031	0.24850107	0.89928339	-0.049236212	0.24208903	0.91783846	0.18777202	0.084928554	0.97250364	0.066374273	0.28653274	1.3577152	-0.090233664	0.23606381	1.3730241	0.23486515	0.19407997	1.4166732	0.062197486	0.16913536	0.99973347	-0.16877523	0.066641419	1.0506536	0.29806477	0.4114481	0.87166765	-0.15472335	0.15623063	0.80422585	0.36630562
263	1.048	0.12428576	-0.059373821	0.058051044	0.52387013	0.11361148	0.16362	-0.015707587	0.0040315176	0.0079250468	0.37613783	0.11840447	0.1773224	0.0072544367	0.021095361	0.10210115	0.39935544	0.15506795	0.086408328	-0.090465615	-0.014857383	0.050628419	0.31699801	0.090148542	0.11788749	0.097747641	0.40289704	-0.053097721	0.46305516	0.55731428	0.23390935	0.099413627	0.4057132	0.072799584	0.46909544	0.54687927	0.1070191	0.15849406	0.822798	-0.10963654	0.17189158	0.8401237	0.26304571	0.25365863	0.89868105	-0.04928092	0.24776273	0.9172649	0.18791224	0.090287382	0.97208232	0.066849014	0.29216101	1.3571244	-0.090274417	0.24261814	1.3724445	0.23496951	0.20022431	1.416159	0.062464508	0.17599556	0.99858392	-0.16879173	0.072301968	1.0508636	0.2985941	0.41960063	0.87339368	-0.1535396	0.16057291	0.8038761	0.36680475
264	1.052	0.12429446	-0.059393705	0.058037553	0.54335873	0.11422181	0.16425225	-0.015785916	0.0045624886	0.0085805625	0.39494325	0.11606663	0.17702375	0.0076766312	0.021513697	0.10242743	0.41833187	0.15293637	0.085958966	-0.090266171	-0.014118818	0.051199173	0.33737425	0.086119697	0.11669862	0.098428426	0.40327783	-0.053136659	0.46949019	0.55787042	0.23396478	0.100605	0.4060389	0.072544951	0.47578841	0.54712336	0.10714982	0.1629421	0.82249686	-0.10938716	0.17741862	0.83954139	0.26347716	0.25881896	0.898078	-0.049326311	0.25346526	0.9166028	0.18805444	0.095672499	0.97159145	0.067339509	0.29781682	1.3564651	-0.090313427	0.24916425	1.3717915	0.23506509	0.20640862	1.4155724	0.062838143	0.18276957	0.99739017	-0.16867725	0.077916847	1.0509948	0.29917465	0.42769692	0.8750445	-0.15235818	0.16498345	0.8034549	0.367283
265	1.056	0.12429843	-0.05941486	0.058019608	0.56273125	0.11492884	0.16493435	-0.015841499	0.005079718	0.0092036216	0.41362771	0.11393441	0.17673124	0.008089323	0.021944531	0.10273315	0.4372777	0.1509988	0.085532881	-0.090068522	-0.013376382	0.051800385	0.35770467	0.08233917	0.11555664	0.099083234	0.40362847	-0.053178895	0.47559407	0.55816958	0.23409172	0.10156912	0.40632099	0.072518332	0.48240593	0.54716115	0.10729746	0.16738264	0.82211426	-0.10912921	0.18296252	0.83885679	0.26392504	0.26398058	0.89747426	-0.049372251	0.25920606	0.91586303	0.1881996	0.10108314	0.97103017	0.067844639	0.30350555	1.3557392	-0.090348772	0.25570309	1.3710659	0.23514997	0.21259627	1.4149002	0.063217585	0.18938241	0.9961383	-0.16835149	0.083452767	1.0510392	0.29978653	0.4357356	0.8766157	-0.15118162	0.16948254	0.80297027	0.36773833
266	1.06	0.12430105	-0.059435715	0.057994546	0.58194168	0.11577226	0.16563558	-0.01587704	0.0055757766	0.0097973069	0.43228058	0.11195507	0.17642637	0.0084985672	0.022397303	0.10301464	0.4561547	0.14926705	0.085133375	-0.089871231	-0.012632607	0.052436515	0.37800351	0.078824058	0.1144478	0.099726368	0.40394379	-0.053228923	0.48137703	0.55819185	0.23427579	0.10239548	0.40650926	0.072719272	0.48895087	0.54699998	0.1074627	0.17181776	0.82165338	-0.10886108	0.18853303	0.83808028	0.2643884	0.26913868	0.8968696	-0.049418944	0.26498796	0.9150508	0.18834879	0.10651171	0.9704082	0.068366444	0.30922913	1.3549488	-0.090380862	0.26224111	1.3702715	0.23522913	0.21874288	1.4141492	0.063469966	0.19590525	0.99482359	-0.16789496	0.088860386	1.0510007	0.30038058	0.44372361	0.87809793	-0.15000834	0.17408908	0.80242946	0.3681677
267	1.064	0.12430367	-0.059458371	0.05796105	0.60096404	0.11675697	0.16630191	-0.015892476	0.0060531621	0.010309958	0.45097045	0.11005701	0.1760533	0.0089140017	0.022850808	0.10326677	0.4749129	0.14774895	0.084762533	-0.08967675	-0.011898605	0.053068784	0.39823507	0.075592586	0.1133886	0.100443	0.40421535	-0.05330877	0.48700157	0.55794571	0.23445593	0.10322683	0.40661927	0.072977636	0.49541718	0.54664778	0.10764261	0.17624284	0.82112309	-0.10857649	0.19414557	0.83723007	0.26486764	0.27428345	0.896265	-0.049466038	0.27080902	0.91416868	0.18849693	0.11194796	0.96974486	0.068919118	0.31498826	1.3540942	-0.090407737	0.26877987	1.369417	0.23530971	0.22486795	1.4133366	0.063611205	0.20244878	0.99344818	-0.16743048	0.094084393	1.0508975	0.30089774	0.45167178	0.87948558	-0.14883407	0.17879334	0.80183189	0.36856778
268	1.068	0.1243065	-0.059485374	0.057920332	0.61980269	0.11785831	0.16686929	-0.015888054	0.0065184155	0.010705128	0.46975282	0.10816626	0.17549949	0.0093373559	0.023279263	0.10347563	0.49349586	0.14644856	0.084420874	-0.089490401	-0.011183176	0.053647926	0.41833168	0.072660336	0.11241556	0.10132069	0.40443803	-0.053434736	0.49262881	0.55746441	0.23457765	0.1041415	0.4067302	0.073117142	0.5017901	0.546118	0.10782795	0.18065332	0.82053287	-0.10826507	0.19982169	0.83632467	0.26536253	0.27940629	0.89566454	-0.049511083	0.27666822	0.9132215	0.18863347	0.11738218	0.96904875	0.069520445	0.32077954	1.3531742	-0.090427478	0.27531743	1.3685082	0.23539312	0.23100796	1.4124735	0.063729477	0.20906611	0.99201334	-0.16702241	0.099159614	1.0507428	0.3013292	0.45958556	0.88078036	-0.14765705	0.18355808	0.80117113	0.36893595
269	1.072	0.12430896	-0.059517557	0.05787437	0.63848086	0.1190384	0.16728268	-0.015860747	0.0069613727	0.010979982	0.4886025	0.10627422	0.17472255	0.0097612851	0.02367292	0.10361982	0.51185342	0.14536223	0.084106346	-0.089313865	-0.0104827	0.054138041	0.43821955	0.070037173	0.11156017	0.10237548	0.40461368	-0.053598953	0.49827059	0.55678497	0.23464523	0.10514237	0.40690557	0.073062586	0.50805766	0.54542764	0.10800268	0.1850498	0.81988512	-0.10792181	0.20557784	0.83537913	0.26586644	0.2845232	0.89507507	-0.049548869	0.28256682	0.91221569	0.18874745	0.12281037	0.96830833	0.070170086	0.32659264	1.352191	-0.090442929	0.28185723	1.3675432	0.23547433	0.23712824	1.4115619	0.063781124	0.21574455	0.99052182	-0.16666554	0.10429436	1.0505224	0.30174998	0.46746137	0.88198558	-0.14648065	0.18834525	0.80044006	0.36927504
